<svg xmlns="http://www.w3.org/2000/svg" viewBox="0 0 256 256" fill="none">
  <g stroke="#111" stroke-width="10" stroke-linecap="round" stroke-linejoin="round">

    <!-- hammer head -->
    <path d="
      M64 64
      H192
      C208 64 216 72 216 88
      V120
      C216 136 208 144 192 144
      H152
      V168
      C152 184 144 192 128 192
      C112 192 104 184 104 168
      V144
      H64
      C48 144 40 136 40 120
      V88
      C40 72 48 64 64 64
      Z
    "/>

    <!-- vertical center line (perfectly centered at x=128) -->
    <path d="M128 72 V184"/>

    <!-- head bands (symmetric) -->
    <path d="M72 96 H184"/>
    <path d="M72 120 H184"/>

    <!-- handle bands -->
    <path d="M112 160 H144"/>
    <path d="M112 176 H144"/>

    <!-- strap ring -->
    <circle cx="128" cy="212" r="20"/>

  </g>
</svg>
